<svg id="egiakYNoRjE1" xmlns="http://www.w3.org/2000/svg" xmlns:xlink="http://www.w3.org/1999/xlink"
     viewBox="0 0 111 111" shape-rendering="geometricPrecision" text-rendering="geometricPrecision">
  <rect width="111" height="111" rx="35" ry="35" fill="#116acc" stroke-width="0" />
  <path d="M27.4933,24.984c-.608,1.76-1.52,3.28-2.736,4.56-1.184,1.28-2.624,2.256-4.32,2.928-1.664.672-3.536,1.008-5.616,1.008-2.88,0-5.40799-.656-7.58399-1.968-2.144-1.344-3.824-3.232-5.04-5.664-1.184-2.432-1.775997-5.328-1.775997-8.688s.591997-6.256,1.775997-8.688s2.848-4.304,4.992-5.616c2.176-1.344,4.70399-2.016001,7.58399-2.016001c2.144,0,4.016.304001,5.616.912001c1.632.576,3.008,1.456,4.128,2.64c1.12,1.152,1.968,2.576,2.544,4.272l-2.352,1.104c-.736-2.208-1.904-3.872-3.504-4.992-1.6-1.152-3.696-1.728-6.288-1.728-2.368,0-4.464.576-6.28799,1.728-1.792,1.12-3.2,2.736-4.224,4.848-.992,2.08-1.488,4.592-1.488,7.536c0,2.912.496,5.424,1.488,7.536s2.384,3.744,4.176,4.896c1.79199,1.12,3.87199,1.68,6.23999,1.68c2.56,0,4.736-.608,6.528-1.824c1.792-1.248,3.04-3.04,3.744-5.376l2.4.912ZM43.3843,8.52c2.24,0,4.208.496,5.904,1.488c1.728.992,3.072,2.432,4.032,4.32.992,1.856,1.488,4.08,1.488,6.672s-.496,4.832-1.488,6.72c-.96,1.856-2.304,3.28-4.032,4.272-1.696.992-3.664,1.488-5.904,1.488s-4.224-.496-5.952-1.488c-1.696-.992-3.04-2.416-4.032-4.272-.96-1.888-1.44-4.128-1.44-6.72s.48-4.816,1.44-6.672c.992-1.888,2.336-3.328,4.032-4.32c1.728-.992,3.712-1.488,5.952-1.488Zm0,2.064c-1.824,0-3.408.416-4.752,1.248s-2.4,2.032-3.168,3.6c-.736,1.536-1.104,3.392-1.104,5.568c0,2.144.368,4,1.104,5.568.768,1.568,1.824,2.768,3.168,3.6s2.928,1.248,4.752,1.248s3.408-.416,4.752-1.248s2.384-2.032,3.12-3.6c.768-1.568,1.152-3.424,1.152-5.568c0-2.176-.384-4.032-1.152-5.568-.736-1.568-1.776-2.768-3.12-3.6s-2.928-1.248-4.752-1.248Zm19.4861-6.24c-.608,0-1.104-.176-1.488-.528-.352-.384-.528-.88-.528-1.488s.176-1.088.528-1.440001c.384-.384001.88-.576002,1.488-.576002s1.088.192001,1.44.576002c.384.352001.576.832001.576,1.440001s-.192,1.104-.576,1.488c-.352.352-.832.528-1.44.528ZM64.0704,9v24h-2.4v-24h2.4Zm8.5219,24v-24h2.16l.192,6-.384-.336c.448-1.312,1.12-2.416,2.016-3.312.896-.928,1.968-1.632,3.216-2.112s2.592-.72,4.032-.72c1.792,0,3.376.336,4.752,1.008s2.448,1.664,3.216,2.976c.8,1.312,1.2,2.96,1.2,4.944v15.552h-2.4v-14.784c0-2.624-.656-4.544-1.968-5.76-1.28-1.216-2.96-1.824-5.04-1.824-1.504,0-2.912.352-4.224,1.056-1.28.672-2.336,1.664-3.168,2.976-.8,1.312-1.2,2.912-1.2,4.8v13.536h-2.4Zm29.6957-3.936c.64,0,1.152.208,1.536.624.416.384.624.896.624,1.536s-.208,1.168-.624,1.584c-.384.384-.896.576-1.536.576s-1.168-.192-1.584-.576c-.384-.416-.576-.944-.576-1.584s.192-1.152.576-1.536c.416-.416.944-.624,1.584-.624Z"
        transform="matrix(.9 0 0 0.9 8.30881 40.293602)" fill="#fff" />
</svg>
